<svg xmlns="http://www.w3.org/2000/svg" viewBox="0 0 128 128" fill="none">
  <defs><linearGradient id="g" x1="24" y1="15" x2="106" y2="113"><stop stop-color="#F2CD78"/><stop offset=".5" stop-color="#C49332"/><stop offset="1" stop-color="#6F4818"/></linearGradient><filter id="s"><feDropShadow dx="0" dy="3" stdDeviation="2" flood-color="#081F28" flood-opacity=".4"/></filter></defs>
  <path d="M64 17v94M23 41l82 47M23 88l82-47M64 17l-10 11M64 17l10 11M64 111l-10-11M64 111l10-11M23 41l15 2M23 41l6 14M105 88l-15-2M105 88l-6-14M23 88l15-2M23 88l6-14M105 41l-15 2M105 41l-6 14" stroke="url(#g)" stroke-width="6" stroke-linecap="round" stroke-linejoin="round" filter="url(#s)"/>
</svg>
